<svg id="Layer_1" data-name="Layer 1" xmlns="http://www.w3.org/2000/svg" viewBox="0 0 1000 525"><defs><style>.cls-1{fill:#fff;}</style></defs><title>datenKezz</title><path class="cls-1" d="M90.18,107.54a41.7,41.7,0,0,0-13.8-9.87,41.66,41.66,0,0,0-16.72-3.29q-11.79,0-20.3,5.9T28.48,114q-2.37,7.78-2.37,26.38v75.5q0,17.87,2.37,25.78t10.76,13.92a33.11,33.11,0,0,0,19.82,6,37.91,37.91,0,0,0,16.29-3.65,50.76,50.76,0,0,0,14.83-11v11.7H139.3V61.8H90.18Zm0,105q0,13.5-1.58,17T82.28,233q-4.13,0-5.59-3.1t-1.46-12.95v-79q0-9.48,1.52-12.22t5.9-2.74q4.5,0,6,3t1.52,11.92Z"/><path class="cls-1" d="M247.76,103.19q-12.65-8.81-37.57-8.81-20.79,0-33.8,7.78T159.06,120.1q-4.32,10.15-4.32,28.88v10.82h46.08v-16.9q0-13.5,1.22-16.72t6.2-3.22a6.47,6.47,0,0,1,6.26,3.83q1.88,3.83,1.89,16.48,0,10.09-1.7,13.37t-25.9,12.77q-22.61,8.75-28.33,15.32t-5.71,24.68v13.25q0,24.44,10.76,31.67a41.5,41.5,0,0,0,23.65,7.23,30,30,0,0,0,28.57-17.3v14.38h47.78v-81q0-40-2.55-52.83T247.76,103.19ZM216.39,215.11q0,12.16-1.4,15T209,233q-4.86,0-6.5-3.65t-1.64-16.17q0-10.94,1.89-16.78t13.68-14.47Z"/><path class="cls-1" d="M323,180.3h11.2V126.72h13.25V111.19H314.32V91.88H334.2V75.78H285v25.41H274.38v25.53H285v81.95q0,24.07,1.34,30.58a21.4,21.4,0,0,0,6.81,11.55,25.51,25.51,0,0,0,12.64,6.44q7.17,1.4,24,1.4h19.82v-26q-12,0-13.68-1.82T334.2,213V199.6H323Z"/><path class="cls-1" d="M424.57,199.6H423v8Q423.88,203.62,424.57,199.6Z"/><path class="cls-1" d="M356.82,153V180.3h69.71c.56-5.88.56-11.75.56-17.35V111.19H367.9a38,38,0,0,0-5.37,8.42Q356.81,131.83,356.82,153Zm49.12-10.21q0-13.61,1.22-16.72t6.32-3.1a5.29,5.29,0,0,1,5.47,3.65q1.34,3.65,1.34,16.17v11.79H405.94Z"/><path class="cls-1" d="M413.6,233q-4.5,0-6.08-3.16t-1.58-14.1V199.6H356.82V200q0,18,2.55,27.42a44.56,44.56,0,0,0,9.18,17.26q6.62,7.84,18.54,12.34a64.86,64.86,0,0,0,9.69,2.79A117.47,117.47,0,0,0,414.29,233C414.06,233,413.84,233,413.6,233Z"/><path class="cls-1" d="M464.11,123a40.53,40.53,0,0,0-7.57-11.83H447v51.76c0,5.6,0,11.47-.56,17.35h23.13V159.43Q469.52,136,464.11,123Z"/><path class="cls-1" d="M421.68,261.3A60.69,60.69,0,0,0,441.26,257a43.25,43.25,0,0,0,12.52-8.12A225.25,225.25,0,0,1,440.52,220,132.19,132.19,0,0,1,421.68,261.3Z"/><path class="cls-1" d="M465.87,231.49a33.77,33.77,0,0,0,1.77-5.32q1.88-8,1.89-23V199.6h-16.7A208.11,208.11,0,0,0,465.87,231.49Z"/><path class="cls-1" d="M586.24,100.34q-8-6-20.67-6c-.75,0-1.49,0-2.22.06v16.74h-28c-.21.33-.42.64-.62,1l.06-1H485.57V180.3h49.12V149.58q0-18.24,1.34-22.43t6.57-4.2q5,0,6.08,3.65t1.09,20.3V180.3h6V199.6h-6v59h49.12V145.57q0-21.16-2.31-30.21A26.5,26.5,0,0,0,586.24,100.34Z"/><rect class="cls-1" x="485.57" y="199.6" width="49.12" height="59.03"/><path class="cls-1" d="M678,133.06q-11.92-7-14.46-12t-2.67-14.84q0-7.67,2.37-11.44a7.73,7.73,0,0,1,7-3.77q4.25,0,6.08,2.8t1.82,13v14.59H725.7v-7.78q0-23.46-4.56-33.25t-18.6-16.23q-14-6.44-34-6.44-18.24,0-31.13,5.9T618.77,79.91Q613,90.37,613,113q0,15.68,4.07,25.78t10.27,15.81q6.2,5.72,25.29,18.36t24,17.87q4.74,5.35,4.74,22.74,0,7.91-2.49,11.92a8.34,8.34,0,0,1-7.6,4q-5.11,0-7.11-3.16t-2-14.23v-24H614.57V201q0,22.13,4.5,34.16t19,19.82q14.53,7.78,35.08,7.78,18.72,0,32.83-6.75t19-16.72q4.92-10,4.92-31,0-28.93-8.88-41.95T678,133.06Z"/><polygon class="cls-1" points="812.51 132.19 797.19 132.19 797.19 61.8 746 61.8 746 258.64 797.19 258.64 797.19 175.96 812.51 175.96 812.51 258.64 863.7 258.64 863.7 61.8 812.51 61.8 812.51 132.19"/><polygon class="cls-1" points="935.43 219.25 935.43 175.96 967.41 175.96 967.41 138.51 935.43 138.51 935.43 101.19 969.6 101.19 969.6 61.8 884.24 61.8 884.24 258.64 973 258.64 973 219.25 935.43 219.25"/><rect class="cls-1" x="334.2" y="180.3" width="22.61" height="19.31"/><rect class="cls-1" x="534.69" y="180.3" width="15.08" height="19.31"/><polygon class="cls-1" points="469.52 180.3 469.52 180.82 405.94 180.82 405.94 199.6 422.96 199.6 422.96 191.28 469.52 191.28 469.52 199.6 485.57 199.6 485.57 180.3 469.52 180.3"/><path class="cls-1" d="M396.78,259.84c-17.51,20.31-44.84,38.94-87.5,53.92,3.92,3.64,9.51,11.47,11.47,16.23,51.91-18.23,82.77-42.28,100.92-68.69-2.28.16-4.64.25-7.11.25A87.26,87.26,0,0,1,396.78,259.84Z"/><path class="cls-1" d="M421.07,228.79q1.88-4.2,1.88-16.23v-4.92A125.18,125.18,0,0,1,414.29,233C417.63,232.78,419.9,231.4,421.07,228.79Z"/><path class="cls-1" d="M347.45,101.19v10H367.9a41.36,41.36,0,0,1,13.36-10.3q13-6.5,29.91-6.51,20.67,0,34.1,7.84a47.88,47.88,0,0,1,11.28,9h29V97.3h50l-.8,13.89h.57a36.31,36.31,0,0,1,12.45-12.36,34.23,34.23,0,0,1,15.59-4.38V91.88H334.2v9.31Z"/><path class="cls-1" d="M453.78,248.88c22.1,40.05,55.2,67.4,103.42,81.11,3.08-5.32,8.67-13.43,12.87-17.63-49.72-12.15-83.33-40.23-104.2-80.87a54.93,54.93,0,0,1-7,11.82A43.69,43.69,0,0,1,453.78,248.88Z"/><path class="cls-1" d="M551.26,421.93l16.07,43.72q2.13,5.64,9.14,5.64h24.68q10.74,0,10.74,7.54a9.67,9.67,0,0,1-3.81,8.11q-3.81,2.93-10.59,2.93H572.2q-10.05,0-14.17-2.78t-7.46-11.62l-20.19-54.54-15.77,38.77q-4.57,11.43-13,11.43a8.64,8.64,0,0,1-6-2.29,7.08,7.08,0,0,1-2.51-5.41,16,16,0,0,1,1.29-5.79l.91-2.21,19.8-48.75q4.49-11.12,4.49-15.39a8.15,8.15,0,0,0-3.24-6.44,11.47,11.47,0,0,0-7.58-2.7q-7.77,0-14,6.51t-6.21,14.59q0,8.84,9.52,12.26,5.79,2.06,5.79,7.16a8.8,8.8,0,0,1-3.31,7,12.41,12.41,0,0,1-8.26,2.78q-9.52,0-16.3-8.07a29,29,0,0,1-6.78-19.27q0-16.68,12.45-29.14t29.21-12.45q12.49,0,20.87,7.31a23.27,23.27,0,0,1,8.38,18.28q0,7.77-4,17.52l-2.67,6.47,40-41.82q6.47-6.78,11.81-6.78a8.34,8.34,0,0,1,6.09,2.4,8.14,8.14,0,0,1,2.44,6.06q0,4.5-6.17,11Z"/><path class="cls-1" d="M600.77,446.76q0,5.71,8.61,5.71H632q9.6,0,9.6,6.78a8.59,8.59,0,0,1-3.39,7.24q-3.39,2.59-9.48,2.59H607.17q-12,0-18.32-5.94t-6.28-17.37a35.94,35.94,0,0,1,9.94-25.37q9.94-10.66,23.65-10.66,10,0,16,5.22a17.26,17.26,0,0,1,6.06,13.75q0,10.28-8.38,15.23-4.65,2.82-13.86,2.82Zm3.66-13.86h8.38q8.15,0,7.92-3.58-.23-4-5.26-4Q608.46,425.28,604.42,432.89Z"/><path class="cls-1" d="M672.9,452.47h19.2q9.6,0,9.6,6.78a8.59,8.59,0,0,1-3.39,7.24q-3.39,2.59-9.48,2.59h-35.5a11.21,11.21,0,0,1-7.5-2.36,8,8,0,0,1-2.78-6.4q0-3.88,5.1-8.84l24.91-24-8.46.3h-1.9q-8.3,0-8.3-6.86a9.29,9.29,0,0,1,3.28-7.2,11.56,11.56,0,0,1,8-2.93h25.59q10.59,0,10.59,9,0,4.65-4.8,9.37Z"/><path class="cls-1" d="M733.76,452.47H753q9.6,0,9.6,6.78a8.59,8.59,0,0,1-3.39,7.24q-3.39,2.59-9.48,2.59h-35.5a11.21,11.21,0,0,1-7.5-2.36,8,8,0,0,1-2.78-6.4q0-3.88,5.1-8.84l24.91-24-8.46.3h-1.9q-8.3,0-8.3-6.86a9.29,9.29,0,0,1,3.28-7.2,11.56,11.56,0,0,1,8-2.93h25.59q10.58,0,10.59,9,0,4.65-4.8,9.37Z"/><path class="cls-1" d="M787.39,452.47H796q9.6,0,9.6,6.78a8.59,8.59,0,0,1-3.39,7.24q-3.39,2.59-9.48,2.59H780.61q-6.7,0-10.55-2.74a8.69,8.69,0,0,1-3.85-7.46,17.69,17.69,0,0,1,1.6-6.4l12.57-30.93.84-2.13q3.5-8.61,11.27-8.61a7.89,7.89,0,0,1,5.52,2.13,6.69,6.69,0,0,1,2.32,5.1q0,2.44-2.06,7.46Zm10.05-66a10.53,10.53,0,1,1-7.5,3.08A10.21,10.21,0,0,1,797.44,386.51Z"/><path class="cls-1" d="M833.85,431.6l-1.45,3.5q-3.35,7.54-9.52,7.54a8.26,8.26,0,0,1-5.6-2.17,6.49,6.49,0,0,1-2.47-5q0-2.67,2.21-7.08l10.13-20.57q3.73-7.39,9.29-7.39a7.32,7.32,0,0,1,5.1,1.94,6,6,0,0,1,2.13,4.61,20.06,20.06,0,0,1-.46,3,16.74,16.74,0,0,0-.3,3,17,17,0,0,0,3.58,9.83l4.34,6q6.63,9.22,6.63,17.82a20.68,20.68,0,0,1-7.16,16q-7.16,6.44-17.82,6.44H816.56q-9.68,0-9.67-6.7a8.66,8.66,0,0,1,3.43-7.27q3.43-2.63,9.45-2.63h8.84q10.58,0,10.59-7.69a14.87,14.87,0,0,0-2-6.63Z"/><path class="cls-1" d="M954.59,452.47h9.06q9.6,0,9.6,6.78a8.59,8.59,0,0,1-3.39,7.24q-3.39,2.59-9.41,2.59H945a12.11,12.11,0,0,1-8.15-2.67,8.76,8.76,0,0,1-3.12-7,23.3,23.3,0,0,1,2.06-8.07l7.16-17.44a7.63,7.63,0,0,0,.61-2.82q0-5-5-5-3.88,0-7.69,3.5a24.68,24.68,0,0,0-6.09,9.29l-8.53,21Q912,470.14,904,470.14a7.54,7.54,0,0,1-5.33-2.06,6.44,6.44,0,0,1-2.21-4.87,14.77,14.77,0,0,1,1.14-5.18l.84-2.06,8.61-21.25a12.76,12.76,0,0,0,1.14-4.42,3.72,3.72,0,0,0-1.52-2.93,5.46,5.46,0,0,0-3.58-1.26q-8.23,0-13,11.88l-8.91,21.86Q877,470.14,869,470.14a7.77,7.77,0,0,1-5.37-2,6.36,6.36,0,0,1-2.25-4.91,14.33,14.33,0,0,1,1.14-5.18l.84-2.06,15.16-37.32q3.2-7.84,9.6-7.85,6.63,0,8.23,6.25a38.85,38.85,0,0,1,8.42-5.87,19.49,19.49,0,0,1,8-1.45,16.56,16.56,0,0,1,15.31,8.91q8.53-8.91,19.2-8.91A18.08,18.08,0,0,1,959.5,414a13.2,13.2,0,0,1,4.91,10.4,21.17,21.17,0,0,1-1.68,8Z"/><path class="cls-1" d="M503.44,389.51a10.53,10.53,0,1,1-7.5,3.08A10.21,10.21,0,0,1,503.44,389.51Z"/><path class="cls-1" d="M252.28,368.85v3.06H248.1a3.72,3.72,0,0,0-2.75.81,4.16,4.16,0,0,0-.77,2.87v2h7.71v2.86h-7.71V400h-3.68V380.44h-6v-2.86h6V376q0-3.68,1.69-5.42t5.28-1.74Z"/><path class="cls-1" d="M268,377a8.69,8.69,0,0,1,7.14,3q2.47,3,2.47,8.75t-2.46,8.76a10,10,0,0,1-14.27,0q-2.46-3-2.46-8.76t2.46-8.75A8.66,8.66,0,0,1,268,377Zm0,3.12a4.76,4.76,0,0,0-4.24,2.18q-1.44,2.18-1.44,6.47a11.82,11.82,0,0,0,1.44,6.46,5.22,5.22,0,0,0,8.51,0,11.82,11.82,0,0,0,1.44-6.46q0-4.28-1.44-6.47A4.78,4.78,0,0,0,268,380.16Z"/><path class="cls-1" d="M303.49,382.2a8.34,8.34,0,0,0-2.4-1.34,8.2,8.2,0,0,0-2.68-.42,6.5,6.5,0,0,0-5.27,2.16,9.45,9.45,0,0,0-1.82,6.25V400h-3.7V377.58h3.7V382a7.48,7.48,0,0,1,2.83-3.65,8,8,0,0,1,4.53-1.27,9.16,9.16,0,0,1,2.54.34,8.14,8.14,0,0,1,2.26,1.06Z"/><path class="cls-1" d="M318.59,379.86a5,5,0,0,1,1.73-2.13,4.51,4.51,0,0,1,2.53-.69,4,4,0,0,1,3.81,2.09q1.11,2.09,1.11,7.88v13h-3.36V387.17q0-4.75-.53-5.9a1.94,1.94,0,0,0-1.93-1.15,2.21,2.21,0,0,0-2.19,1.23q-.59,1.23-.59,5.82V400H315.8V387.17q0-4.8-.57-5.93a2.1,2.1,0,0,0-2.05-1.12,2.05,2.05,0,0,0-2,1.23q-.57,1.23-.57,5.82V400h-3.34V377.58h3.34v1.92a4.93,4.93,0,0,1,1.65-1.83,4.11,4.11,0,0,1,2.25-.63,4.35,4.35,0,0,1,2.53.7A4.5,4.5,0,0,1,318.59,379.86Z"/><path class="cls-1" d="M352.16,386.95v1.8h-16v.12q-.16,4.58,1.75,6.59a7.11,7.11,0,0,0,5.4,2,13.14,13.14,0,0,0,3.68-.56,22.56,22.56,0,0,0,4.1-1.7v3.66a24.91,24.91,0,0,1-4.05,1.29,17.56,17.56,0,0,1-3.77.43q-5.23,0-8.17-3.13t-2.94-8.64a12.33,12.33,0,0,1,2.88-8.57,9.84,9.84,0,0,1,7.69-3.2,8.41,8.41,0,0,1,6.76,2.9A11.15,11.15,0,0,1,352.16,386.95Zm-3.68-1.08a7.14,7.14,0,0,0-1.69-4,5.2,5.2,0,0,0-4.17-1.69,5.87,5.87,0,0,0-4.38,1.76,6.21,6.21,0,0,0-1.88,4Z"/><path class="cls-1" d="M377.54,382.2a8.34,8.34,0,0,0-2.4-1.34,8.2,8.2,0,0,0-2.68-.42,6.5,6.5,0,0,0-5.27,2.16,9.45,9.45,0,0,0-1.82,6.25V400h-3.7V377.58h3.7V382a7.48,7.48,0,0,1,2.83-3.65,8,8,0,0,1,4.53-1.27,9.16,9.16,0,0,1,2.54.34,8.14,8.14,0,0,1,2.26,1.06Z"/><path class="cls-1" d="M393.5,391.89a6.37,6.37,0,0,0,.91,3.74,3.11,3.11,0,0,0,2.69,1.26h4.3V400h-4.66a6.37,6.37,0,0,1-5.11-2.11,8.93,8.93,0,0,1-1.81-6V371.61h-5.91v-2.88h9.59Z"/><path class="cls-1" d="M421,392.79q-.92,2.34-2.34,6.17a59.32,59.32,0,0,1-2.66,6.45,6.27,6.27,0,0,1-2.3,2.34,6.45,6.45,0,0,1-3.22.78h-3v-3.08h2.18a3.39,3.39,0,0,0,2.54-.94q.92-.94,2.34-4.86l-8.67-22.06h3.9l6.65,17.54L423,377.58h3.9Z"/><path class="cls-1" d="M437.06,377.6h6.25v7.23h-6.25Zm0,15.12h6.25V400h-6.25Z"/></svg>