<svg id="Layer_1" data-name="Layer 1" xmlns="http://www.w3.org/2000/svg" viewBox="0 0 1000 329"><defs><style>.cls-1{fill:#fff;}</style></defs><title>SomeLogos</title><path class="cls-1" d="M442.45,67.79c-.14,1.17-.23,2-.32,3.21h11c-.06-1.77-.18-3.32-.38-4.94H473c-.29,2-.47,3.4-.59,4.94H730.29c-.07-1.61-.18-3-.34-4.4l20.41,1.19c-.14,1.17-.23,2-.32,3.21h11c-.06-1.77-.18-3.32-.38-4.94h20.3c-.29,2-.47,3.4-.59,4.94H864V61H178V71H422.38c-.07-1.61-.18-3-.34-4.4Z"/><path class="cls-1" d="M689.44,224q-6.37,0-10.15-2.59a12.75,12.75,0,0,1-2.48-2.2h-7.6a24.61,24.61,0,0,1-3.37,1.93,22.2,22.2,0,0,1-9.56,2.21,21,21,0,0,1-12.69-3.73c-.18-.13-.34-.28-.51-.42H623.52l-.07,0q-7.88,4.21-20.74,4.21-14.47,0-23-3.89l-.75-.36H562.95a34.4,34.4,0,0,1-5.27,2.58A33.61,33.61,0,0,1,545.26,224q-7.35,0-11.77-3.35a11.88,11.88,0,0,1-1.57-1.44H518.1a17.51,17.51,0,0,1-4.54,2.9,24,24,0,0,1-10,1.89q-7.13,0-11.34-3.29a12,12,0,0,1-1.58-1.5h-9a1.66,1.66,0,0,1,0,1.12,3.23,3.23,0,0,1-2.05,2.05,14.64,14.64,0,0,1-5.08.65H449.9a6.93,6.93,0,0,1-4-.92,2.22,2.22,0,0,1-.92-2.43,2.78,2.78,0,0,1,.23-.47h-5.28a19.62,19.62,0,0,1-3.47,2.2,18.81,18.81,0,0,1-8.53,1.94,20.81,20.81,0,0,1-9.61-2.05,12,12,0,0,1-2.93-2.09h-6.86a22.11,22.11,0,0,1-3.39,2,21.85,21.85,0,0,1-9.5,2.11,19.16,19.16,0,0,1-9.61-2.21,16.57,16.57,0,0,1-2.73-1.93H341.29a2.19,2.19,0,0,1,.07.47,2.64,2.64,0,0,1-1.73,2.59,13.19,13.19,0,0,1-5.08.76H307.45a7.11,7.11,0,0,1-4.21-1,2.52,2.52,0,0,1-1-2.79H178v10H864v-10H703a19,19,0,0,1-4.43,2.85A21.18,21.18,0,0,1,689.44,224Z"/><path class="cls-1" d="M666.76,204.21a2.84,2.84,0,0,0,.86,2.27,3.31,3.31,0,0,0,2.27.76,4.76,4.76,0,0,0,3.35-1.19,10.24,10.24,0,0,0,1.94-2.68h-8.33A5.91,5.91,0,0,0,666.76,204.21Z"/><path class="cls-1" d="M378.29,208a17.05,17.05,0,0,1,.32-3.35c.1-.44.23-.86.35-1.28H338.65l-1.94,6.89a5.59,5.59,0,0,0-.22,1.73,5.06,5.06,0,0,0,.18,1.38h42.6A15.22,15.22,0,0,1,378.29,208Z"/><path class="cls-1" d="M454.26,203.36H440l-1.21,4.08a4.53,4.53,0,0,0-.11,1.08q0,1.73,1.4,1.73a2.76,2.76,0,0,0,2.21-1.13q.92-1.13,1.24-1.13c.36,0,.66.25.92.76a3.82,3.82,0,0,1,.38,1.73,7.57,7.57,0,0,1-.48,2.89h6.74a15.12,15.12,0,0,0,.66-1.81Z"/><path class="cls-1" d="M404.32,205.94a4.56,4.56,0,0,0,.81,2.81,2.73,2.73,0,0,0,2.32,1.08,5.62,5.62,0,0,0,3.08-1.13,6.39,6.39,0,0,0,2.43-3.4l.68-1.92h-8.86A7.34,7.34,0,0,0,404.32,205.94Z"/><path class="cls-1" d="M311.45,203.36H178v10H308.2a10.07,10.07,0,0,0,1.3-3.11Z"/><path class="cls-1" d="M633.5,204.53a22.23,22.23,0,0,1-.43,3.24,15.52,15.52,0,0,1-2.6,5.59h8.61a14.24,14.24,0,0,1-.61-4.19,19.54,19.54,0,0,1,.95-5.81h-6C633.47,203.75,633.5,204.13,633.5,204.53Z"/><path class="cls-1" d="M701,209.39a1.73,1.73,0,0,0,.38,1.19,1.29,1.29,0,0,0,1,.43,2.77,2.77,0,0,0,2.21-1.13q.92-1.13,1.24-1.13.54,0,.92.7a3.5,3.5,0,0,1,.38,1.67,7.82,7.82,0,0,1-.25,2.24H864v-10H702.66l-1.45,4.73A5.85,5.85,0,0,0,701,209.39Z"/><path class="cls-1" d="M605.74,209.18a5.55,5.55,0,0,0-2.48-4.27,26.1,26.1,0,0,0-2.37-1.55h-9.52a10.79,10.79,0,0,1,3.25,8,13.46,13.46,0,0,1-.18,2h9.49A5.16,5.16,0,0,0,605.74,209.18Z"/><path class="cls-1" d="M529.92,206.26l.94-2.9H517.57l-1.47,4.73a3,3,0,0,0-.21,1.3,1.74,1.74,0,0,0,.38,1.19,1.29,1.29,0,0,0,1,.43,2.76,2.76,0,0,0,2.21-1.13q.92-1.13,1.24-1.13c.36,0,.65.23.86.7a4,4,0,0,1,.32,1.67,8.6,8.6,0,0,1-.22,2.24h7.5a13.69,13.69,0,0,1-.15-1.92A15.65,15.65,0,0,1,529.92,206.26Z"/><path class="cls-1" d="M572.74,203.36h-14.6l0,.09a10.49,10.49,0,0,0-.54,3.35,3.07,3.07,0,0,0,1.08,2.7,5.21,5.21,0,0,0,3,.76,27.07,27.07,0,0,0,4.32-.43,9.52,9.52,0,0,1,2.27-.32,1.35,1.35,0,0,1,1.13.49,2,2,0,0,1,.38,1.24,4.08,4.08,0,0,1-.61,2.14h3.22a9.5,9.5,0,0,1-1.1-4.51A9.68,9.68,0,0,1,572.74,203.36Z"/><path class="cls-1" d="M489.69,203.36H481.4l-2.55,8.4a7,7,0,0,0-.37,1.6H488a13.47,13.47,0,0,1-.12-1.49A24.45,24.45,0,0,1,489.69,203.36Z"/><path class="cls-1" d="M483.16,197.55h8.74l3.82-10h-9.31a14.4,14.4,0,0,0-.88,2.19Z"/><path class="cls-1" d="M459.13,187.55H444.26a35.15,35.15,0,0,1-1.06,5l-1.49,5H456Z"/><polygon class="cls-1" points="532.74 197.54 535.97 187.54 522.47 187.54 519.37 197.54 532.74 197.54"/><path class="cls-1" d="M615.24,187.55l1,.46q5.4,2.38,8.91,4.37a20.66,20.66,0,0,1,5.94,5l.1.14h10l3.06-10Z"/><path class="cls-1" d="M386.12,193.41a24.59,24.59,0,0,1,13.77-3.78,56.64,56.64,0,0,1,17.6,2.81l1.85-4.89H379.66A24.94,24.94,0,0,1,374,192q-8.91,5.18-22.52,5.18H340.39l-.1.36h41.49A16.61,16.61,0,0,1,386.12,193.41Z"/><polygon class="cls-1" points="668.52 197.54 677.2 197.54 680.23 187.54 671.55 187.54 668.52 197.54"/><path class="cls-1" d="M559.91,197.55h29.74c-.69-.4-1.35-.79-1.95-1.17a19.67,19.67,0,0,1-5.35-5,11.13,11.13,0,0,1-1.8-3.81H562.94Z"/><polygon class="cls-1" points="178 187.54 178 197.54 313.1 197.54 315.93 187.54 178 187.54"/><polygon class="cls-1" points="864 197.54 864 187.54 707.49 187.54 704.44 197.54 864 197.54"/><path class="cls-1" d="M461.35,180.34a4.22,4.22,0,0,0,.22-1.51,3,3,0,0,0-.49-1.84,12.4,12.4,0,0,0-1.57-1.62,7.32,7.32,0,0,1-1.51-1.51,2,2,0,0,1-.11-1.73,2.62,2.62,0,0,1,.16-.4H438.85a14.74,14.74,0,0,1,5.47,10h16.6Z"/><path class="cls-1" d="M572.48,176.78h-6.26l-1.5,5h15.6a15.91,15.91,0,0,1,5.26-10H579l-.06.3Q577.55,176.78,572.48,176.78Z"/><path class="cls-1" d="M392.66,178.4a9,9,0,0,1,3-6.67h-8.88A27.77,27.77,0,0,1,386,176a30.49,30.49,0,0,1-2.23,5.71h9.77A6.81,6.81,0,0,1,392.66,178.4Z"/><path class="cls-1" d="M523.77,180.23c0,.5,0,1-.06,1.5h13.65a6.31,6.31,0,0,0-1-3.44,17.18,17.18,0,0,0-2.86-3.13,14.1,14.1,0,0,1-2.27-2.54,2.74,2.74,0,0,1-.35-.89h-9.59A14.43,14.43,0,0,1,523.77,180.23Z"/><path class="cls-1" d="M613.52,176.67a8.49,8.49,0,0,1,.43-2.7,13.11,13.11,0,0,0-3.46-.54,7.42,7.42,0,0,0-4.48,1.3,4,4,0,0,0-1.67,3.67,5.09,5.09,0,0,0,1.23,3.33h9.79A7.65,7.65,0,0,1,613.52,176.67Z"/><path class="cls-1" d="M637.6,177.64a7.6,7.6,0,0,1-1.11,4.09H646l.42-1.39a5.37,5.37,0,0,0,.32-1.62,3,3,0,0,0-.54-1.89,7.44,7.44,0,0,0-1.62-1.46,7.33,7.33,0,0,1-1.51-1.51,2,2,0,0,1-.11-1.73,2.62,2.62,0,0,1,.16-.4h-8.32A8.08,8.08,0,0,1,637.6,177.64Z"/><path class="cls-1" d="M488.89,177.1a33.7,33.7,0,0,1,4.55-5.37h-5.36A11.66,11.66,0,0,1,488.89,177.1Z"/><path class="cls-1" d="M710,179.48l-.69,2.25H864v-10H710.36a8.73,8.73,0,0,1,.47,2.89A16.93,16.93,0,0,1,710,179.48Z"/><polygon class="cls-1" points="178 171.73 178 181.73 317.57 181.73 320.4 171.73 178 171.73"/><path class="cls-1" d="M360.86,171.73H347.61l-2.87,10h12.58a36.58,36.58,0,0,0,2.95-7.65C360.5,173.26,360.69,172.48,360.86,171.73Z"/><path class="cls-1" d="M674.75,174.72a14.93,14.93,0,0,1-.76,4.75l-.68,2.25H682l.42-1.39a5.31,5.31,0,0,0,.32-1.62,3,3,0,0,0-.54-1.89,8.54,8.54,0,0,0-1.51-1.46,7.32,7.32,0,0,1-1.51-1.51,2,2,0,0,1-.11-1.73,2.48,2.48,0,0,1,.15-.4h-4.94A9.23,9.23,0,0,1,674.75,174.72Z"/><path class="cls-1" d="M419.87,174.4a7.89,7.89,0,0,0-5-1.3,10.07,10.07,0,0,1,.65,3.56,9.06,9.06,0,0,1-1.49,5.06h7.09a16.83,16.83,0,0,0,.45-3.44A5,5,0,0,0,419.87,174.4Z"/><path class="cls-1" d="M323.11,161a4.72,4.72,0,0,0-.38-2q-.38-.81-1-1.89A7.63,7.63,0,0,1,321,156c-3,.06-5.19.18-7.54.37v-.44H178v10H322.05l.62-2.2A9.2,9.2,0,0,0,323.11,161Z"/><path class="cls-1" d="M417.17,165.87c.59,0,1.16,0,1.73,0h56.76c.62,0,1.25,0,1.88,0,.4,0,.78,0,1.16,0H507.6q.73,0,1.48,0c.36,0,.71,0,1.05,0h34.44l5.44-5.44a26.84,26.84,0,0,1,5.74-4.56H473.42c-2.18.94-4.62,1.89-7.43,2.92a24.18,24.18,0,0,0-5.29,2.27l-5-5.19H422.63c-1.33,1.56-2.77,3.16-4.38,4.87-1.42-1.87-2.68-3.46-3.88-4.87H392.77v.44c-3.12-.28-7.48-.4-12.21-.43l.17.12a15.75,15.75,0,0,1,5.91,9.87H415C415.69,165.89,416.41,165.87,417.17,165.87Z"/><path class="cls-1" d="M768.61,161.1l-5-5.19H730.54c-1.33,1.56-2.77,3.16-4.38,4.87-1.42-1.87-2.68-3.46-3.88-4.87H700.67v.44c-3.56-.32-8.75-.43-14.26-.43H635.87c-7,0-10.58.11-14.47.43v-.44H569.9a4.79,4.79,0,0,1,1.17,3.37,10.26,10.26,0,0,1-.43,3l-1.1,3.6H597.9a52,52,0,0,1,10.65-1,71.11,71.11,0,0,1,12.62,1h39.61c.62,0,1.25,0,1.88,0s1.06,0,1.56,0h32.52c.62,0,1.25,0,1.88,0s1.06,0,1.56,0H864v-10H781.33c-2.18.94-4.62,1.89-7.43,2.92A24.17,24.17,0,0,0,768.61,161.1Z"/><path class="cls-1" d="M355.61,160.79h-4.86l-1.47,5.12h12.09C361,162.51,359.12,160.79,355.61,160.79Z"/><path class="cls-1" d="M427.15,150.09h24.67a25.94,25.94,0,0,0,.78-7.78l0-2.22H432.85A63.58,63.58,0,0,1,427.15,150.09Z"/><path class="cls-1" d="M635.87,140.58h26.68l.09-.49h-40A104.13,104.13,0,0,0,635.87,140.58Z"/><path class="cls-1" d="M680.37,140.58h6.16c5.25,0,9.2-.16,12.62-.49h-18.7Z"/><path class="cls-1" d="M716.25,140.09H700.67v10h15.85c-1.66-1.42-3.52-2.83-5.8-4.44A60.28,60.28,0,0,0,716.25,140.09Z"/><path class="cls-1" d="M298.81,140.09V149c-4.75-.43-7.45-.54-18.79-.54H223.53c-9.61,0-13.39.11-17.71.54v-8.91H178v10H313.49v-10Z"/><path class="cls-1" d="M606.71,140.09V149c-4.75-.43-7.45-.54-18.79-.54H531.44c-9.61,0-13.39.11-17.71.54v-8.91H495.13a59.85,59.85,0,0,1-6.46,6.43c-1.57,1.33-3.06,2.5-4.58,3.57H621.4v-10Z"/><path class="cls-1" d="M735.06,150.09h24.67a25.93,25.93,0,0,0,.78-7.78l0-2.22H740.75A63.57,63.57,0,0,1,735.06,150.09Z"/><path class="cls-1" d="M328,140.58h26.68l.09-.49h-40A104.12,104.12,0,0,0,328,140.58Z"/><path class="cls-1" d="M402.81,145.66a60.26,60.26,0,0,0,5.53-5.56H392.77v10h15.85C406.95,148.67,405.09,147.26,402.81,145.66Z"/><path class="cls-1" d="M372.46,140.58h6.16c5.25,0,9.2-.16,12.62-.49h-18.7Z"/><path class="cls-1" d="M796.58,146.52c-1.57,1.33-3.06,2.5-4.58,3.57h72v-10H803A59.87,59.87,0,0,1,796.58,146.52Z"/><path class="cls-1" d="M452.75,124.27H438.13a78.31,78.31,0,0,1-2.9,10h17.43Z"/><path class="cls-1" d="M415.66,128.48c.65-1.35,1.24-2.75,1.78-4.21H374.93c-.48,3.25-1,6.66-1.5,10h39.15A59.93,59.93,0,0,0,415.66,128.48Z"/><path class="cls-1" d="M483.83,124.27H471.71l-.1,10H473A40.52,40.52,0,0,0,483.83,124.27Z"/><path class="cls-1" d="M505.11,124.27a74.53,74.53,0,0,1-5.55,10h14.17v-5.47c6.48.76,8,.86,18,.86H587.6c10.8,0,14.15-.11,19.12-.86v5.47h57c.68-3.91,1.18-7,1.62-10Z"/><path class="cls-1" d="M681.34,134.27h39.15a59.92,59.92,0,0,0,3.08-5.79c.65-1.35,1.24-2.75,1.78-4.21H682.83C682.36,127.53,681.85,130.93,681.34,134.27Z"/><path class="cls-1" d="M864,134.27v-10H813a74.51,74.51,0,0,1-5.55,10Z"/><path class="cls-1" d="M223.85,129.67h55.84c10.8,0,14.15-.11,19.12-.86v5.47h57c.68-3.91,1.18-7,1.62-10H178v10h27.82v-5.47C212.3,129.56,213.81,129.67,223.85,129.67Z"/><path class="cls-1" d="M779.52,134.27h1.38a40.53,40.53,0,0,0,10.83-10H779.62Z"/><path class="cls-1" d="M746,124.27a78.3,78.3,0,0,1-2.9,10h17.43l.08-10Z"/><path class="cls-1" d="M747.14,118.45h13.57l.08-10H748.33C748,112.09,747.62,115.39,747.14,118.45Z"/><path class="cls-1" d="M487.62,118.45a54.06,54.06,0,0,0,4.3-10H471.86l-.1,10Z"/><path class="cls-1" d="M452.88,108.45H440.42c-.31,3.63-.71,6.94-1.19,10H452.8Z"/><path class="cls-1" d="M795.52,118.45a54.06,54.06,0,0,0,4.3-10H779.77l-.1,10Z"/><path class="cls-1" d="M684.58,112c-.26,1.9-.56,4.1-.9,6.5h43.46a84.19,84.19,0,0,0,1.81-10H685C684.91,109.47,684.76,110.63,684.58,112Z"/><path class="cls-1" d="M814.45,118.45H864v-10H803.9A65.36,65.36,0,0,0,814.45,118.45Z"/><path class="cls-1" d="M506.54,118.45H666.06c.34-2.81.69-6,1.12-10H639.42c-2.84.06-4.87.18-7,.37v-.37H496A65.36,65.36,0,0,0,506.54,118.45Z"/><path class="cls-1" d="M421,108.45h-43.9c-.14,1-.29,2.18-.47,3.5-.25,1.9-.56,4.1-.9,6.5h43.46A84.18,84.18,0,0,0,421,108.45Z"/><path class="cls-1" d="M331.51,108.45c-2.84.06-4.87.18-7,.37v-.37H178v10H358.15c.34-2.81.69-6,1.13-10Z"/><path class="cls-1" d="M339,93.06h26.14a14.82,14.82,0,0,0,4.17-.42H326.52A110.17,110.17,0,0,0,339,93.06Z"/><path class="cls-1" d="M749.17,92.84c-.1,3.51-.24,6.76-.42,9.79h12.09l.08-10H749.17Z"/><polygon class="cls-1" points="864 102.64 864 92.64 779.92 92.64 779.83 102.64 864 102.64"/><path class="cls-1" d="M673,93.06a14.83,14.83,0,0,0,4.17-.42H634.43a110.16,110.16,0,0,0,12.46.42Z"/><path class="cls-1" d="M422.21,92.64h-50l7.29,6a12,12,0,0,0-1.46,4h43.62C421.89,99.59,422.08,96.27,422.21,92.64Z"/><path class="cls-1" d="M288.11,92.64V94.9c-6.16-.43-9-.54-17.71-.54h-37c-8,0-12.85.22-16.63.54V92.64H178v10H324.51v-10Z"/><path class="cls-1" d="M440.84,102.64h12.09l.08-10H441.26v.21C441.16,96.35,441,99.6,440.84,102.64Z"/><path class="cls-1" d="M687.39,98.68a12,12,0,0,0-1.46,4h43.62c.25-3,.44-6.36.57-10h-50Z"/><path class="cls-1" d="M632.42,92.64H596V94.9c-6.16-.43-9-.54-17.71-.54h-37c-8,0-12.85.22-16.63.54V92.64H472l-.1,10h160.5Z"/><path class="cls-1" d="M472.07,86.82h52.57v-10H472.18c0,.55,0,1.13,0,1.77Z"/><path class="cls-1" d="M730.28,86.82c.06-3.11.09-6.44.09-10H596v10Z"/><path class="cls-1" d="M422.37,86.82c.06-3.11.09-6.44.09-10H288.11v10Z"/><path class="cls-1" d="M780,86.82h84v-10H780.09c0,.55,0,1.13,0,1.77Z"/><path class="cls-1" d="M749.38,86.82H761l.07-8.45V76.82h-11.3C749.65,79.19,749.54,82.38,749.38,86.82Z"/><rect class="cls-1" x="178" y="76.82" width="38.72" height="10"/><path class="cls-1" d="M453.14,78.37V76.82h-11.3c-.09,2.37-.21,5.56-.37,10h11.6Z"/><rect class="cls-1" x="178" y="235" width="686" height="10"/><rect class="cls-1" x="216.72" y="86.82" width="71.39" height="5.82"/><path class="cls-1" d="M288.11,75.13a138.48,138.48,0,0,1-17.93.76H233.57c-8.75,0-11.77-.11-16.85-.76v1.69h71.39Z"/><rect class="cls-1" x="205.82" y="134.27" width="92.99" height="5.82"/><path class="cls-1" d="M440.84,102.64h-19.2c-.17,2.06-.37,4-.6,5.82h19.38C440.58,106.6,440.72,104.67,440.84,102.64Z"/><path class="cls-1" d="M441.26,92.64l.21-5.82h-19.1q-.06,3-.16,5.82Z"/><path class="cls-1" d="M442.13,71H422.38c.06,1.5.09,3.24.09,5.53,0,.1,0,.19,0,.28h19.37C442,73.91,442,72.23,442.13,71Z"/><path class="cls-1" d="M433.27,139.18c.71-1.62,1.37-3.25,2-4.9H412.58a43.43,43.43,0,0,1-4.24,5.82h24.5Z"/><path class="cls-1" d="M408.61,150.09a49.93,49.93,0,0,1,5.76,5.82h8.26c1.69-2,3.18-3.9,4.52-5.82Z"/><path class="cls-1" d="M439.23,118.45h-20a56,56,0,0,1-1.78,5.82h20.69C438.54,122.42,438.9,120.49,439.23,118.45Z"/><polygon class="cls-1" points="471.77 118.45 452.8 118.45 452.75 124.27 471.71 124.27 471.77 118.45"/><path class="cls-1" d="M473,134.27c-.46.3-.9.6-1.39.91v-.91H452.67l0,5.82h42.52a59.32,59.32,0,0,0,4.42-5.82Z"/><path class="cls-1" d="M493,104.83c-.33,1.26-.7,2.46-1.07,3.62H496C495.06,107.37,494.08,106.18,493,104.83Z"/><path class="cls-1" d="M451.41,151.38l4.33,4.53h17.69a57,57,0,0,0,10.66-5.82H451.82C451.7,150.51,451.57,150.93,451.41,151.38Z"/><path class="cls-1" d="M453.14,76.82h19c.05-2.52.11-4.23.24-5.82H453.09c0,1.06.05,2.19.05,3.48Z"/><polygon class="cls-1" points="471.86 108.45 471.92 102.64 452.93 102.64 452.88 108.45 471.86 108.45"/><path class="cls-1" d="M506.54,118.45H487.62a54.61,54.61,0,0,1-3,4.84c-.25.34-.49.65-.74,1h21.28c.77-1.65,1.52-3.37,2.25-5.19Z"/><polygon class="cls-1" points="472.07 86.82 453.07 86.82 453.02 92.64 472.01 92.64 472.07 86.82"/><rect class="cls-1" x="513.73" y="134.27" width="92.99" height="5.82"/><rect class="cls-1" x="524.63" y="86.82" width="71.39" height="5.82"/><path class="cls-1" d="M596,75.13a138.49,138.49,0,0,1-17.93.76H541.48c-8.75,0-11.77-.11-16.85-.76v1.69H596Z"/><path class="cls-1" d="M663.67,134.27c-.3,1.74-.64,3.66-1,5.82h17.81c.29-1.89.59-3.84.89-5.82Z"/><path class="cls-1" d="M699.15,140.09h1.53v-.16Z"/><path class="cls-1" d="M632.42,92.41v.23h2Z"/><rect class="cls-1" x="621.4" y="150.09" width="79.27" height="5.82"/><path class="cls-1" d="M621.4,140.09h1.28l-1.28-.16Z"/><path class="cls-1" d="M679.18,91.87a12.45,12.45,0,0,1-2,.77h2.91Z"/><path class="cls-1" d="M665.29,124.27h17.54c.3-2,.58-4,.84-5.82H666.06C665.81,120.52,665.56,122.4,665.29,124.27Z"/><path class="cls-1" d="M632.42,108.45h7c1.89,0,4.14-.06,7-.06h20.74v.06H685c.38-2.83.64-4.59.88-5.82H632.42Z"/><path class="cls-1" d="M792.48,123.3c-.25.34-.49.65-.74,1H813c.77-1.65,1.52-3.37,2.25-5.19l-.81-.63H795.52A54.6,54.6,0,0,1,792.48,123.3Z"/><polygon class="cls-1" points="760.79 108.45 779.77 108.45 779.83 102.64 760.84 102.64 760.79 108.45"/><path class="cls-1" d="M761,71c0,1.06.05,2.19.05,3.48v2.34h19c.05-2.52.12-4.23.24-5.82Z"/><polygon class="cls-1" points="779.62 124.27 779.67 118.45 760.71 118.45 760.66 124.27 779.62 124.27"/><path class="cls-1" d="M779.52,135.18v-.91H760.57l0,5.82H803a59.33,59.33,0,0,0,4.42-5.82H780.91C780.45,134.57,780,134.87,779.52,135.18Z"/><polygon class="cls-1" points="760.93 92.64 779.92 92.64 779.98 86.82 760.98 86.82 760.93 92.64"/><path class="cls-1" d="M759.32,151.38l4.33,4.53h17.69A57,57,0,0,0,792,150.09H759.73C759.61,150.51,759.47,150.93,759.32,151.38Z"/><path class="cls-1" d="M800.9,104.83c-.33,1.26-.7,2.46-1.07,3.62h4.07C803,107.37,802,106.18,800.9,104.83Z"/><path class="cls-1" d="M716.25,140.09h24.5l.42-.92c.71-1.62,1.37-3.25,2-4.9H720.49A43.43,43.43,0,0,1,716.25,140.09Z"/><path class="cls-1" d="M730.37,76.82h19.37c.12-2.91.2-4.59.29-5.82H730.29c.06,1.5.09,3.24.09,5.53C730.38,76.63,730.37,76.72,730.37,76.82Z"/><path class="cls-1" d="M725.35,124.27H746c.41-1.85.77-3.78,1.1-5.82h-20A56,56,0,0,1,725.35,124.27Z"/><path class="cls-1" d="M716.52,150.09a49.93,49.93,0,0,1,5.76,5.82h8.26c1.69-2,3.18-3.9,4.52-5.82Z"/><path class="cls-1" d="M728.95,108.45h19.38c.16-1.85.3-3.78.42-5.82h-19.2C729.38,104.7,729.18,106.63,728.95,108.45Z"/><path class="cls-1" d="M730.12,92.64h19.05l.21-5.82h-19.1Q730.22,89.86,730.12,92.64Z"/><path class="cls-1" d="M338.55,108.4h20.74v.06h17.86c.38-2.83.64-4.59.88-5.82H324.51v5.82h7C333.41,108.41,335.65,108.4,338.55,108.4Z"/><polygon class="cls-1" points="340.29 197.54 313.1 197.54 311.45 203.36 338.65 203.36 340.29 197.54"/><path class="cls-1" d="M375.77,118.45H358.15c-.25,2.07-.5,3.94-.77,5.82h17.54C375.22,122.26,375.51,120.3,375.77,118.45Z"/><path class="cls-1" d="M324.51,92.64h2l-2-.23Z"/><path class="cls-1" d="M391.24,140.09h1.53v-.16Z"/><path class="cls-1" d="M313.49,140.09h1.28l-1.28-.16Z"/><path class="cls-1" d="M369.29,92.64h2.91l-.92-.77A12.45,12.45,0,0,1,369.29,92.64Z"/><path class="cls-1" d="M383.73,181.73H357.31a12.85,12.85,0,0,1-2.08,2.88,10,10,0,0,1-7.4,2.86h-4.75l1.65-5.74H317.57l-1.65,5.82h63.73A25.07,25.07,0,0,0,383.73,181.73Z"/><polygon class="cls-1" points="349.28 165.91 322.05 165.91 320.4 171.73 347.61 171.73 349.28 165.91"/><path class="cls-1" d="M355.76,134.27c-.3,1.74-.64,3.66-1,5.82h17.81c.29-1.89.59-3.84.89-5.82Z"/><path class="cls-1" d="M360.86,171.73h25.92a23.13,23.13,0,0,0,.16-2.51,19.16,19.16,0,0,0-.3-3.31H361.38a11.14,11.14,0,0,1,.07,1.15A21.78,21.78,0,0,1,360.86,171.73Z"/><path class="cls-1" d="M340.93,218.36a16.78,16.78,0,0,0-1.62-1.62,16,16,0,0,1-2.11-2.27,3.48,3.48,0,0,1-.53-1.1H308.2a5.12,5.12,0,0,1-.43.56,12.39,12.39,0,0,1-2.92,2.27,10.94,10.94,0,0,0-1.78,1.35,3.13,3.13,0,0,0-.81,1.57v.07h39A2,2,0,0,0,340.93,218.36Z"/><rect class="cls-1" x="313.49" y="150.09" width="79.27" height="5.82"/><path class="cls-1" d="M444.5,184.44a21.1,21.1,0,0,0-.18-2.72H421.16c-.23,1.06-.55,2.25-1,3.58l-.85,2.24h24.91A23.62,23.62,0,0,0,444.5,184.44Z"/><path class="cls-1" d="M406.21,200.91a6,6,0,0,1,4.91-2.32,23.75,23.75,0,0,1,4.1.32l-1.58,4.45H440l1.73-5.82H381.78a18.62,18.62,0,0,0-2.81,5.82h25.82A8.65,8.65,0,0,1,406.21,200.91Z"/><path class="cls-1" d="M437,170.46c-4.61-2.84-10.67-4.35-18.14-4.55H415c-7.16.2-12.59,1.37-16.25,3.52a16,16,0,0,0-3,2.29h43.19A17.67,17.67,0,0,0,437,170.46Z"/><path class="cls-1" d="M395.63,184.17q3,2.32,8.26,2.32,5.61,0,8.64-2.92a10.66,10.66,0,0,0,1.53-1.85H393.49A8,8,0,0,0,395.63,184.17Z"/><path class="cls-1" d="M442.61,216.41a11.56,11.56,0,0,0,1.73-3H379.27a16.29,16.29,0,0,0,.91,2,13.55,13.55,0,0,0,3,3.8h25.24a22.93,22.93,0,0,0,4.28-4,10.79,10.79,0,0,0,2.58,4h24.55A16,16,0,0,0,442.61,216.41Z"/><path class="cls-1" d="M493.44,171.73h27.85a13.45,13.45,0,0,0-1.56-1.86,14.17,14.17,0,0,0-9.58-4H507.6a23.94,23.94,0,0,0-9.32,2.39A19.93,19.93,0,0,0,493.44,171.73Z"/><path class="cls-1" d="M458.05,171.73h30a8.63,8.63,0,0,0-2-2.89,11.38,11.38,0,0,0-7.37-2.93h-3a43.2,43.2,0,0,0-11,1.85C460.93,168.91,458.73,170.24,458.05,171.73Z"/><path class="cls-1" d="M459.13,187.55h27.29a12.43,12.43,0,0,1,2.26-3.26,6.34,6.34,0,0,1,4.54-2.21,3.23,3.23,0,0,1,2.21.81,2.81,2.81,0,0,1,.92,2.21,6.71,6.71,0,0,1-.54,2.27l-.07.19h26.74l.22-.73a20.88,20.88,0,0,0,1-5.09H460.92Z"/><path class="cls-1" d="M491.91,197.55l-2,5.37-.17.45h27.88l1.8-5.82Z"/><path class="cls-1" d="M480.46,217.82a8.89,8.89,0,0,1-1.51-1.67,3.72,3.72,0,0,1-.54-2.11,5.92,5.92,0,0,1,.07-.67h-27.4a7.23,7.23,0,0,1-1.18,2,9.85,9.85,0,0,1-2.7,2.05,4.83,4.83,0,0,0-2,1.8h36.46a1.34,1.34,0,0,0-.08-.18A5.22,5.22,0,0,0,480.46,217.82Z"/><polygon class="cls-1" points="456.05 197.54 454.26 203.36 481.4 203.36 483.16 197.54 456.05 197.54"/><path class="cls-1" d="M519.88,217.22a10.65,10.65,0,0,0,1.83-3.86H488a10.61,10.61,0,0,0,2.62,5.82H518.1A12.77,12.77,0,0,0,519.88,217.22Z"/><polygon class="cls-1" points="532.74 197.54 530.86 203.36 558.14 203.36 559.91 197.54 532.74 197.54"/><path class="cls-1" d="M556.55,155.5c-.26.12-.53.26-.79.41H569.9c-1.1-1.2-3-1.81-5.63-1.81A18.17,18.17,0,0,0,556.55,155.5Z"/><path class="cls-1" d="M569.17,213.36h-40a10.52,10.52,0,0,0,2.71,5.82h31a22.24,22.24,0,0,0,3.64-2.72A13.22,13.22,0,0,0,569.17,213.36Z"/><path class="cls-1" d="M543.21,167.27h-6a9.79,9.79,0,0,0-4.43.76,3.61,3.61,0,0,0-1.84,2.16,3.47,3.47,0,0,0,0,1.54H579a7.75,7.75,0,0,0,.16-1.21,2.82,2.82,0,0,0-1.13-2.38,5.16,5.16,0,0,0-3.19-.86h-5.72l.41-1.36h-25Z"/><path class="cls-1" d="M536.84,184.88l-.86,2.67h27l1.77-5.82H537.36c0,.08,0,.15,0,.23A11,11,0,0,1,536.84,184.88Z"/><path class="cls-1" d="M630.46,213.36H603.93l0,0a7.06,7.06,0,0,1-4.64,1.51,20.48,20.48,0,0,1-5-.65c.06-.3.1-.59.15-.89h-22q1.81,3.43,6.63,5.82h44.5A20.29,20.29,0,0,0,630.46,213.36Z"/><path class="cls-1" d="M585.56,171.73h49.28c-.24-.23-.48-.45-.75-.68a25.11,25.11,0,0,0-10-4.54c-.92-.23-1.89-.43-2.88-.61H597.9a27.49,27.49,0,0,0-10.36,4.22A20.72,20.72,0,0,0,585.56,171.73Z"/><path class="cls-1" d="M581.55,199.46a11.15,11.15,0,0,0-7.45,2.38,7.3,7.3,0,0,0-1.35,1.53h18.62c-.19-.19-.37-.38-.58-.56A13.57,13.57,0,0,0,581.55,199.46Z"/><path class="cls-1" d="M595.7,200.64c2.07,1,3.79,1.9,5.19,2.72h32.55a10.85,10.85,0,0,0-2.27-5.82H589.65C591.38,198.53,593.38,199.56,595.7,200.64Z"/><path class="cls-1" d="M617.24,183.47a15.13,15.13,0,0,0,9.13,2.7q5.29,0,8.26-2.38a8.13,8.13,0,0,0,1.86-2.07H615.36A10.35,10.35,0,0,0,617.24,183.47Z"/><path class="cls-1" d="M580.56,187.55h34.68a61.52,61.52,0,0,1-8.09-4.4,7.75,7.75,0,0,1-1.57-1.42H580.31a19.43,19.43,0,0,0-.16,2.5A13.09,13.09,0,0,0,580.56,187.55Z"/><path class="cls-1" d="M643.08,219.18h26.13a29,29,0,0,0,5.22-4.61,11.23,11.23,0,0,0,2.38,4.61H703a14.25,14.25,0,0,0,1.94-2.07,10.57,10.57,0,0,0,1.91-3.75H639.07A11.7,11.7,0,0,0,643.08,219.18Z"/><path class="cls-1" d="M675.83,202q-.33.71-.66,1.32h27.48l1.78-5.82H677.2Z"/><path class="cls-1" d="M668.52,197.55H641.19l-1.64,5.37c-.05.15-.09.3-.13.45h27.43a7.15,7.15,0,0,1,.35-1.42Z"/><polygon class="cls-1" points="680.23 187.54 707.49 187.54 709.27 181.73 682 181.73 680.23 187.54"/><path class="cls-1" d="M643.16,171.73h31.12a7.57,7.57,0,0,0-2.44-3.48q-2.54-2.07-7.62-2.33h-3.44a43.19,43.19,0,0,0-11,1.85C646,168.91,643.84,170.24,643.16,171.73Z"/><path class="cls-1" d="M685.77,167.76c-3.76,1.16-5.94,2.48-6.55,4h31.14a7.6,7.6,0,0,0-2.5-3.48q-2.59-2.07-7.67-2.33h-3.44A43.2,43.2,0,0,0,685.77,167.76Z"/><polygon class="cls-1" points="644.25 187.54 671.55 187.54 673.31 181.73 646.03 181.73 644.25 187.54"/></svg>